<?xml version="1.0" encoding="UTF-8"?>
<!DOCTYPE svg PUBLIC "-//W3C//DTD SVG 1.1//EN" "http://www.w3.org/Graphics/SVG/1.1/DTD/svg11.dtd">
<svg version="1.1" xmlns="http://www.w3.org/2000/svg" xmlns:xlink="http://www.w3.org/1999/xlink" x="0px" y="0px" width="20" height="20" viewBox="0, 0, 20, 20">
  <g id="Layer_1">
    <path d="M4.917,14.772 L4.917,16.681 C4.917,16.767 4.892,16.842 4.843,16.905 C4.793,16.968 4.735,17 4.667,17 L3.167,17 C3.099,17 3.041,16.968 2.991,16.905 C2.941,16.842 2.917,16.767 2.917,16.681 L2.917,14.772 C2.917,14.686 2.942,14.611 2.991,14.548 C3.041,14.485 3.099,14.453 3.167,14.453 L4.667,14.453 C4.735,14.453 4.793,14.485 4.843,14.548 C4.892,14.612 4.917,14.686 4.917,14.772 z M4.917,10.954 L4.917,12.863 C4.917,12.949 4.892,13.024 4.843,13.087 C4.793,13.15 4.735,13.182 4.667,13.182 L3.167,13.182 C3.099,13.182 3.041,13.15 2.991,13.087 C2.941,13.024 2.917,12.949 2.917,12.863 L2.917,10.954 C2.917,10.868 2.942,10.793 2.991,10.73 C3.041,10.667 3.099,10.635 3.167,10.635 L4.667,10.635 C4.735,10.635 4.793,10.667 4.843,10.73 C4.892,10.793 4.917,10.868 4.917,10.954 z M4.917,7.136 L4.917,9.045 C4.917,9.131 4.892,9.206 4.843,9.269 C4.793,9.332 4.735,9.364 4.667,9.364 L3.167,9.364 C3.099,9.364 3.041,9.332 2.991,9.269 C2.941,9.206 2.917,9.131 2.917,9.045 L2.917,7.136 C2.917,7.05 2.942,6.975 2.991,6.912 C3.04,6.849 3.099,6.817 3.167,6.817 L4.667,6.817 C4.735,6.817 4.793,6.849 4.843,6.912 C4.892,6.976 4.917,7.05 4.917,7.136 z M16.917,14.772 L16.917,16.681 C16.917,16.767 16.892,16.842 16.843,16.905 C16.793,16.968 16.734,17 16.666,17 L6.167,17 C6.099,17 6.041,16.968 5.991,16.905 C5.941,16.842 5.917,16.767 5.917,16.681 L5.917,14.772 C5.917,14.686 5.942,14.611 5.991,14.548 C6.041,14.485 6.099,14.453 6.167,14.453 L16.666,14.453 C16.734,14.453 16.792,14.485 16.842,14.548 C16.892,14.612 16.917,14.686 16.917,14.772 z M4.917,3.318 L4.917,5.227 C4.917,5.313 4.892,5.388 4.843,5.451 C4.793,5.514 4.735,5.546 4.667,5.546 L3.167,5.546 C3.099,5.546 3.041,5.514 2.991,5.451 C2.941,5.388 2.917,5.313 2.917,5.227 L2.917,3.318 C2.917,3.232 2.942,3.157 2.991,3.094 C3.04,3.031 3.099,3 3.167,3 L4.667,3 C4.735,3 4.793,3.032 4.843,3.095 C4.892,3.158 4.917,3.232 4.917,3.318 z M16.917,10.954 L16.917,12.863 C16.917,12.949 16.892,13.024 16.843,13.087 C16.793,13.15 16.735,13.182 16.667,13.182 L6.167,13.182 C6.099,13.182 6.041,13.15 5.991,13.087 C5.941,13.024 5.917,12.949 5.917,12.863 L5.917,10.954 C5.917,10.868 5.942,10.793 5.991,10.73 C6.041,10.667 6.099,10.635 6.167,10.635 L16.666,10.635 C16.734,10.635 16.792,10.667 16.842,10.73 C16.892,10.793 16.917,10.868 16.917,10.954 z M16.917,7.136 L16.917,9.045 C16.917,9.131 16.892,9.206 16.843,9.269 C16.793,9.332 16.735,9.364 16.667,9.364 L6.167,9.364 C6.099,9.364 6.041,9.332 5.991,9.269 C5.941,9.206 5.917,9.131 5.917,9.045 L5.917,7.136 C5.917,7.05 5.942,6.975 5.991,6.912 C6.04,6.849 6.099,6.817 6.167,6.817 L16.666,6.817 C16.734,6.817 16.792,6.849 16.842,6.912 C16.892,6.976 16.917,7.05 16.917,7.136 z M16.917,3.318 L16.917,5.227 C16.917,5.313 16.892,5.388 16.843,5.451 C16.793,5.514 16.735,5.546 16.667,5.546 L6.167,5.546 C6.099,5.546 6.041,5.514 5.991,5.451 C5.941,5.388 5.917,5.313 5.917,5.227 L5.917,3.318 C5.917,3.232 5.942,3.157 5.991,3.094 C6.04,3.031 6.099,3 6.167,3 L16.666,3 C16.734,3 16.792,3.032 16.842,3.095 C16.892,3.158 16.917,3.232 16.917,3.318 z" fill="#666666"/>
  </g>
  <defs/>
</svg>
